HIERARCHY
ROOT Hips
{
	OFFSET 0.000000 97.167313 0.000000
	CHANNELS 6 Xposition Yposition Zposition Xrotation Yrotation Zrotation
	JOINT Spine
	{
		OFFSET 0.000000 13.784798 0.064400
		CHANNELS 3 Xrotation Yrotation Zrotation
		JOINT Spine1
		{
			OFFSET 0.000000 12.037903 0.404700
			CHANNELS 3 Xrotation Yrotation Zrotation
			JOINT Spine2
			{
				OFFSET 0.000000 17.795601 0.420200
				CHANNELS 3 Xrotation Yrotation Zrotation
				JOINT Neck
				{
					OFFSET 0.000000 39.131302 11.954600
					CHANNELS 3 Xrotation Yrotation Zrotation
					JOINT Head
					{
						OFFSET 0.000000 14.456192 15.627699
						CHANNELS 3 Xrotation Yrotation Zrotation
						JOINT HeadTop_End
						{
							OFFSET 0.000000 15.703506 7.603401
							CHANNELS 3 Xrotation Yrotation Zrotation
							End Site
							{
								OFFSET 0.000000 17.447403 0.000000
							}
						}
					}
				}
				JOINT LeftShoulder
				{
					OFFSET 17.399500 24.608795 1.168800
					CHANNELS 3 Xrotation Yrotation Zrotation
					JOINT LeftArm
					{
						OFFSET 18.980635 5.765305 1.818600
						CHANNELS 3 Xrotation Yrotation Zrotation
						JOINT LeftForeArm
						{
							OFFSET 49.290169 0.000000 0.000000
							CHANNELS 3 Xrotation Yrotation Zrotation
							JOINT LeftHand
							{
								OFFSET 31.562012 0.000000 0.000000
								CHANNELS 3 Xrotation Yrotation Zrotation
								JOINT LeftHandThumb1
								{
									OFFSET 6.133995 -4.388519 7.076070
									CHANNELS 3 Xrotation Yrotation Zrotation
									JOINT LeftHandThumb2
									{
										OFFSET 6.037666 -3.485840 3.485847
										CHANNELS 3 Xrotation Yrotation Zrotation
										JOINT LeftHandThumb3
										{
											OFFSET 6.496506 -3.750763 3.750761
											CHANNELS 3 Xrotation Yrotation Zrotation
											JOINT LeftHandThumb4
											{
												OFFSET 5.616882 -3.242905 3.242910
												CHANNELS 3 Xrotation Yrotation Zrotation
												End Site
												{
													OFFSET -1.254608 7.132141 0.375429
												}
											}
										}
									}
								}
								JOINT LeftHandPinky1
								{
									OFFSET 18.920792 -0.453171 -11.426712
									CHANNELS 3 Xrotation Yrotation Zrotation
									JOINT LeftHandPinky2
									{
										OFFSET 4.919586 0.000000 0.000000
										CHANNELS 3 Xrotation Yrotation Zrotation
										JOINT LeftHandPinky3
										{
											OFFSET 5.233047 0.000000 0.000000
											CHANNELS 3 Xrotation Yrotation Zrotation
											JOINT LeftHandPinky4
											{
												OFFSET 5.571716 0.000000 0.000000
												CHANNELS 3 Xrotation Yrotation Zrotation
												End Site
												{
													OFFSET -3.459808 4.342407 -0.466164
												}
											}
										}
									}
								}
								JOINT LeftHandRing1
								{
									OFFSET 22.726120 -0.094986 -6.500475
									CHANNELS 3 Xrotation Yrotation Zrotation
									JOINT LeftHandRing2
									{
										OFFSET 6.408615 0.000000 0.000000
										CHANNELS 3 Xrotation Yrotation Zrotation
										JOINT LeftHandRing3
										{
											OFFSET 6.150223 0.000000 0.000000
											CHANNELS 3 Xrotation Yrotation Zrotation
											JOINT LeftHandRing4
											{
												OFFSET 6.145386 0.000000 0.000000
												CHANNELS 3 Xrotation Yrotation Zrotation
												End Site
												{
													OFFSET -3.671402 4.923981 -0.202372
												}
											}
										}
									}
								}
								JOINT LeftHandMiddle1
								{
									OFFSET 23.373947 0.000000 0.000001
									CHANNELS 3 Xrotation Yrotation Zrotation
									JOINT LeftHandMiddle2
									{
										OFFSET 6.996567 0.000000 0.000000
										CHANNELS 3 Xrotation Yrotation Zrotation
										JOINT LeftHandMiddle3
										{
											OFFSET 7.015945 0.000000 0.000000
											CHANNELS 3 Xrotation Yrotation Zrotation
											JOINT LeftHandMiddle4
											{
												OFFSET 7.721573 0.000000 0.000000
												CHANNELS 3 Xrotation Yrotation Zrotation
												End Site
												{
													OFFSET -4.651108 6.158463 0.251582
												}
											}
										}
									}
								}
								JOINT LeftHandIndex1
								{
									OFFSET 21.310577 -0.490082 6.209344
									CHANNELS 3 Xrotation Yrotation Zrotation
									JOINT LeftHandIndex2
									{
										OFFSET 7.536453 0.000000 0.000000
										CHANNELS 3 Xrotation Yrotation Zrotation
										JOINT LeftHandIndex3
										{
											OFFSET 7.512344 0.000000 0.000000
											CHANNELS 3 Xrotation Yrotation Zrotation
											JOINT LeftHandIndex4
											{
												OFFSET 10.212402 0.000000 0.000001
												CHANNELS 3 Xrotation Yrotation Zrotation
												End Site
												{
													OFFSET -5.180801 8.690506 1.388433
												}
											}
										}
									}
								}
							}
						}
					}
				}
				JOINT RightShoulder
				{
					OFFSET -17.399500 24.608795 1.168800
					CHANNELS 3 Xrotation Yrotation Zrotation
					JOINT RightArm
					{
						OFFSET -18.980635 5.765305 1.818600
						CHANNELS 3 Xrotation Yrotation Zrotation
						JOINT RightForeArm
						{
							OFFSET -49.290169 0.000000 0.000000
							CHANNELS 3 Xrotation Yrotation Zrotation
							JOINT RightHand
							{
								OFFSET -31.562012 0.000000 0.000000
								CHANNELS 3 Xrotation Yrotation Zrotation
								JOINT RightHandThumb1
								{
									OFFSET -6.133995 -4.388519 7.076070
									CHANNELS 3 Xrotation Yrotation Zrotation
									JOINT RightHandThumb2
									{
										OFFSET -6.037666 -3.485840 3.485847
										CHANNELS 3 Xrotation Yrotation Zrotation
										JOINT RightHandThumb3
										{
											OFFSET -6.496506 -3.750763 3.750761
											CHANNELS 3 Xrotation Yrotation Zrotation
											JOINT RightHandThumb4
											{
												OFFSET -5.616882 -3.242905 3.242910
												CHANNELS 3 Xrotation Yrotation Zrotation
												End Site
												{
													OFFSET 1.254608 7.132141 0.375429
												}
											}
										}
									}
								}
								JOINT RightHandIndex1
								{
									OFFSET -21.310577 -0.490082 6.209344
									CHANNELS 3 Xrotation Yrotation Zrotation
									JOINT RightHandIndex2
									{
										OFFSET -7.536453 0.000000 0.000000
										CHANNELS 3 Xrotation Yrotation Zrotation
										JOINT RightHandIndex3
										{
											OFFSET -7.512344 0.000000 0.000000
											CHANNELS 3 Xrotation Yrotation Zrotation
											JOINT RightHandIndex4
											{
												OFFSET -10.212402 0.000000 0.000001
												CHANNELS 3 Xrotation Yrotation Zrotation
												End Site
												{
													OFFSET 5.180801 8.690506 1.388433
												}
											}
										}
									}
								}
								JOINT RightHandMiddle1
								{
									OFFSET -23.373947 0.000000 0.000001
									CHANNELS 3 Xrotation Yrotation Zrotation
									JOINT RightHandMiddle2
									{
										OFFSET -6.996567 0.000000 0.000000
										CHANNELS 3 Xrotation Yrotation Zrotation
										JOINT RightHandMiddle3
										{
											OFFSET -7.015945 0.000000 0.000000
											CHANNELS 3 Xrotation Yrotation Zrotation
											JOINT RightHandMiddle4
											{
												OFFSET -7.721573 0.000000 0.000000
												CHANNELS 3 Xrotation Yrotation Zrotation
												End Site
												{
													OFFSET 4.651108 6.158463 0.251582
												}
											}
										}
									}
								}
								JOINT RightHandRing1
								{
									OFFSET -22.726120 -0.094986 -6.500475
									CHANNELS 3 Xrotation Yrotation Zrotation
									JOINT RightHandRing2
									{
										OFFSET -6.408615 0.000000 0.000000
										CHANNELS 3 Xrotation Yrotation Zrotation
										JOINT RightHandRing3
										{
											OFFSET -6.150223 0.000000 0.000000
											CHANNELS 3 Xrotation Yrotation Zrotation
											JOINT RightHandRing4
											{
												OFFSET -6.145386 0.000000 0.000000
												CHANNELS 3 Xrotation Yrotation Zrotation
												End Site
												{
													OFFSET 3.671402 4.923981 -0.202372
												}
											}
										}
									}
								}
								JOINT RightHandPinky1
								{
									OFFSET -18.920792 -0.453171 -11.426712
									CHANNELS 3 Xrotation Yrotation Zrotation
									JOINT RightHandPinky2
									{
										OFFSET -4.919586 0.000000 0.000000
										CHANNELS 3 Xrotation Yrotation Zrotation
										JOINT RightHandPinky3
										{
											OFFSET -5.233047 0.000000 0.000000
											CHANNELS 3 Xrotation Yrotation Zrotation
											JOINT RightHandPinky4
											{
												OFFSET -5.571716 0.000000 0.000000
												CHANNELS 3 Xrotation Yrotation Zrotation
												End Site
												{
													OFFSET 3.459808 4.342407 -0.466164
												}
											}
										}
									}
								}
							}
						}
					}
				}
			}
		}
	}
	JOINT LeftUpLeg
	{
		OFFSET 19.899099 -7.885101 -3.429500
		CHANNELS 3 Xrotation Yrotation Zrotation
		JOINT LeftLeg
		{
			OFFSET 1.745560 -36.997807 10.304700
			CHANNELS 3 Xrotation Yrotation Zrotation
			JOINT LeftFoot
			{
				OFFSET -1.745558 -29.803308 -13.615400
				CHANNELS 3 Xrotation Yrotation Zrotation
				JOINT LeftToeBase
				{
					OFFSET 1.181900 -18.539904 15.226099
					CHANNELS 3 Xrotation Yrotation Zrotation
					JOINT LeftToe_End
					{
						OFFSET -0.863701 1.402801 16.534700
						CHANNELS 3 Xrotation Yrotation Zrotation
						End Site
						{
							OFFSET 0.000000 16.616566 0.000000
						}
					}
				}
			}
		}
	}
	JOINT RightUpLeg
	{
		OFFSET -19.899099 -7.885101 -3.429500
		CHANNELS 3 Xrotation Yrotation Zrotation
		JOINT RightLeg
		{
			OFFSET -1.745560 -36.997807 10.304700
			CHANNELS 3 Xrotation Yrotation Zrotation
			JOINT RightFoot
			{
				OFFSET 1.745558 -29.803308 -13.615400
				CHANNELS 3 Xrotation Yrotation Zrotation
				JOINT RightToeBase
				{
					OFFSET -1.181900 -18.539904 15.226099
					CHANNELS 3 Xrotation Yrotation Zrotation
					JOINT RightToe_End
					{
						OFFSET 0.863701 1.402801 16.534700
						CHANNELS 3 Xrotation Yrotation Zrotation
						End Site
						{
							OFFSET 0.000000 16.616566 0.000000
						}
					}
				}
			}
		}
	}
}
MOTION
Frames: 4
Frame Time: 0.033333
0.148577 91.629196 2.976848 3.808563 0.466688 -0.451557 0.169751 0.316913 0.004290 0.511367 0.555646 -0.149824 0.508197 0.554435 -0.164226 -12.568405 -1.447527 2.637433 10.197542 3.163031 -2.584843 0.000000 -0.000000 -0.000000 1.604991 -11.385828 -9.553345 4.329811 -15.662764 -64.423014 0.000003 -12.875096 -0.000009 1.693002 -1.937870 -8.457178 0.699762 -6.020125 19.223919 19.074673 26.512412 -1.026333 3.271074 -0.981139 3.963642 0.000003 0.000002 -0.000003 3.603261 12.761693 -45.581298 0.673750 2.729590 -27.725806 0.090005 1.024028 -10.045305 -0.000001 0.000001 -0.000004 3.090057 8.505099 -34.940441 1.098177 3.416388 -35.630180 0.533268 2.443981 -24.613777 0.000001 0.000002 0.000003 2.486463 8.732165 -25.419889 1.496274 3.911560 -41.853736 0.476274 2.315682 -23.241535 -0.000000 0.000001 0.000007 0.463489 4.491292 -23.662465 0.883081 3.094846 -31.844193 0.339541 1.967258 -19.583681 -0.000000 0.000001 -0.000001 2.087503 14.855926 10.815230 -4.515368 3.403518 66.314580 -0.000002 7.534024 0.000007 10.827187 0.053898 8.057304 -13.495573 -11.552034 -5.371123 13.666587 -20.582669 -6.820321 3.162474 -4.141718 -22.215020 0.000002 -0.000001 0.000001 0.246061 -3.262768 18.902304 0.589429 -2.269661 29.112647 0.172147 -1.255804 15.610677 -0.000000 -0.000003 -0.000001 -0.702533 -1.215796 21.259783 0.924244 -2.786660 36.691858 0.558010 -2.212352 28.309440 0.000001 0.000002 -0.000004 -0.941522 -2.664828 38.529258 0.358949 -1.794598 22.620036 0.313735 -1.682014 21.129354 -0.000001 -0.000005 -0.000005 -2.260384 -1.124632 39.408132 0.612397 -2.310411 29.687581 0.130091 -1.094183 13.559642 0.000002 -0.000001 0.000004 -11.857987 10.578020 8.349431 19.626549 -0.439378 1.350724 -11.602756 1.661131 -6.367364 -0.337118 -0.000007 -0.000000 -0.000000 0.000001 -0.000000 -12.432898 -7.697684 -6.474761 18.768159 0.084395 -1.390536 -9.966829 -1.554932 6.849783 -0.259909 -0.000004 0.000000 0.000000 0.000000 -0.000000 
0.152628 91.741539 2.935738 3.656382 0.440122 -0.459623 0.296769 0.337817 -0.014719 0.543809 0.543470 -0.148654 0.540672 0.543209 -0.160683 -12.276747 -1.433290 2.675296 9.566329 3.059095 -2.629952 0.000000 -0.000000 -0.000000 1.570711 -11.445538 -10.048838 4.658283 -16.027100 -63.847331 0.000004 -12.713351 0.000006 0.458734 -2.147141 -7.742904 0.637765 -6.270132 18.553217 18.980175 26.551462 -0.716961 3.296226 0.066730 4.545682 -0.000001 -0.000000 0.000000 3.552391 12.710698 -44.847097 0.650875 2.685661 -27.241619 0.099278 1.075108 -10.552007 -0.000003 -0.000001 0.000001 3.037489 8.485728 -34.402915 1.051231 3.350047 -34.834696 0.522188 2.419655 -24.352584 0.000001 -0.000000 0.000008 2.457210 8.707049 -25.211587 1.469563 3.881591 -41.460505 0.428938 2.202270 -22.040617 0.000000 -0.000004 0.000006 0.445395 4.444416 -23.171075 0.861716 3.060243 -31.446379 0.317812 1.905090 -18.940547 0.000001 0.000003 0.000002 2.154856 14.538768 11.142529 -4.422063 4.584919 65.782959 0.000002 7.480906 -0.000000 9.552390 0.078689 7.977165 -13.404465 -10.057098 -5.575973 13.854560 -21.038260 -6.484051 3.176588 -5.743737 -21.478310 -0.000006 -0.000003 -0.000003 0.355045 -2.979429 18.332224 0.566765 -2.228497 28.534999 0.165493 -1.231731 15.303942 -0.000001 -0.000002 0.000005 -0.668006 -1.252507 20.881429 0.887875 -2.737226 35.937013 0.530634 -2.160788 27.591649 -0.000000 0.000001 -0.000008 -0.889755 -2.639472 37.509596 0.360457 -1.798202 22.667979 0.317473 -1.691663 21.256544 0.000000 0.000001 -0.000003 -2.409155 -1.608034 38.585473 0.590312 -2.271234 29.134848 0.141169 -1.139157 14.128370 -0.000002 -0.000002 -0.000001 -11.579880 10.599862 8.322586 19.315403 -0.400984 1.361806 -11.416578 1.645778 -6.373496 -0.349137 0.000007 -0.000001 0.000000 -0.000001 -0.000000 -12.161743 -7.716244 -6.435602 18.425550 0.100842 -1.392830 -9.745105 -1.537499 6.838070 -0.266219 0.000000 0.000000 0.000000 -0.000000 0.000000 
0.152561 91.866287 2.882688 3.500990 0.387213 -0.464954 0.434599 0.366738 -0.036011 0.579242 0.534167 -0.147611 0.576146 0.534523 -0.158648 -11.923490 -1.417611 2.715322 8.921083 2.940312 -2.693023 -0.000000 -0.000000 0.000000 1.538574 -11.498699 -10.546429 5.075863 -16.407055 -63.171737 -0.000003 -12.817776 0.000003 -0.625946 -2.356365 -7.078318 0.569549 -6.546623 17.806202 18.874753 26.594069 -0.372021 3.319118 1.231435 5.196936 0.000001 0.000001 -0.000002 3.496512 12.653261 -44.029308 0.625835 2.636502 -26.702175 0.110164 1.131911 -11.116596 -0.000000 0.000002 -0.000004 2.978898 8.463387 -33.804105 1.000020 3.275329 -33.948506 0.509957 2.392523 -24.061554 -0.000001 -0.000002 -0.000000 2.425371 8.679167 -24.985047 1.440715 3.848771 -41.032734 0.379010 2.074783 -20.702768 0.000002 -0.000002 0.000004 0.425712 4.392020 -22.623642 0.838207 3.021515 -31.003161 0.294428 1.835570 -18.224015 0.000000 -0.000000 -0.000001 2.236094 14.193776 11.476939 -4.226124 5.886270 65.153482 -0.000002 7.726776 0.000001 8.458790 0.055844 7.974740 -13.313649 -8.396103 -5.813483 14.065238 -21.544648 -6.106419 3.192194 -7.543136 -20.671248 0.000002 0.000003 0.000003 0.482110 -2.666796 17.695649 0.541997 -2.182368 27.891480 0.158226 -1.204877 14.962166 0.000001 -0.000001 -0.000001 -0.630344 -1.293938 20.459885 0.848111 -2.681584 35.096046 0.500881 -2.102926 26.791987 0.000001 0.000003 -0.000001 -0.832901 -2.613819 36.373305 0.362138 -1.802215 22.721389 0.321680 -1.702408 21.398269 -0.000001 0.000001 0.000000 -2.590610 -2.140314 37.664006 0.566135 -2.227350 28.519018 0.154047 -1.189119 14.762078 -0.000001 -0.000001 0.000000 -11.278798 10.626452 8.296143 18.961102 -0.343254 1.368706 -11.203821 1.633782 -6.384094 -0.354577 -0.000006 -0.000000 0.000000 0.000001 0.000000 -11.893381 -7.733031 -6.388980 18.047047 0.135646 -1.396446 -9.484521 -1.513254 6.815408 -0.269639 -0.000006 0.000000 -0.000000 0.000000 0.000000 
0.147986 92.006538 2.818560 3.353662 0.314333 -0.468560 0.583040 0.400450 -0.059983 0.617438 0.525956 -0.146937 0.614390 0.526619 -0.158102 -11.515944 -1.401310 2.757529 8.257481 2.803034 -2.765962 -0.000000 -0.000000 -0.000000 1.509305 -11.548013 -11.034749 5.568700 -16.795280 -62.408046 -0.000004 -13.193416 -0.000014 -1.546763 -2.563198 -6.479411 0.495430 -6.847441 16.987387 18.759056 26.639725 0.006337 3.337048 2.505285 5.914403 0.000001 -0.000002 -0.000003 3.436194 12.589434 -43.132873 0.598901 2.582338 -26.110734 0.122722 1.194071 -11.735688 -0.000000 0.000001 0.000001 2.914664 8.437967 -33.147663 0.945197 3.192541 -32.976843 0.496731 2.362669 -23.742508 0.000002 -0.000001 0.000005 2.391176 8.648660 -24.741923 1.410036 3.813304 -40.573462 0.327721 1.933706 -19.236070 -0.000000 -0.000002 0.000008 0.404726 4.334397 -22.023436 0.812775 2.978835 -30.517268 0.269792 1.759009 -17.438385 -0.000002 0.000003 0.000002 2.331976 13.817358 11.820412 -3.916719 7.272256 64.419721 0.000001 8.304772 -0.000022 7.595460 -0.026024 8.054534 -13.224670 -6.579953 -6.083269 14.298050 -22.098367 -5.688637 3.211283 -9.532429 -19.801919 -0.000000 -0.000001 0.000001 0.627940 -2.327669 16.996057 0.515446 -2.131482 27.185850 0.150434 -1.175358 14.587423 -0.000000 -0.000001 -0.000001 -0.590049 -1.339985 19.997703 0.805470 -2.619924 34.174015 0.469207 -2.039006 25.915215 -0.000002 0.000001 -0.000004 -0.771716 -2.588724 35.127287 0.363991 -1.806609 22.779994 0.326306 -1.714183 21.553661 0.000001 0.000001 -0.000005 -2.807586 -2.716111 36.648025 0.540180 -2.178940 27.843811 0.168794 -1.243746 15.456937 0.000000 -0.000000 0.000002 -10.964132 10.657478 8.269695 18.551043 -0.270791 1.370417 -10.954547 1.623301 -6.397165 -0.354094 -0.000008 -0.000000 0.000000 0.000001 0.000000 -11.629978 -7.747593 -6.333554 17.618299 0.182347 -1.401006 -9.178836 -1.483516 6.783869 -0.269897 -0.000006 -0.000001 0.000000 0.000001 0.000000 
